<mxfile host="Electron" modified="2023-11-03T06:55:38.173Z" agent="Mozilla/5.0 (X11; Linux x86_64) AppleWebKit/537.36 (KHTML, like Gecko) draw.io/22.0.3 Chrome/114.0.5735.289 Electron/25.8.4 Safari/537.36" etag="T8CzT_NFw2vshnJeU-Ba" version="22.0.3" type="device">
  <diagram name="第 1 页" id="w1KSNIns1z5XO0oNDlF6">
    <mxGraphModel dx="1489" dy="906" grid="0" gridSize="10" guides="1" tooltips="1" connect="1" arrows="1" fold="1" page="0" pageScale="1" pageWidth="827" pageHeight="1169" math="0" shadow="0">
      <root>
        <mxCell id="0" />
        <mxCell id="1" parent="0" />
        <mxCell id="eVCT4GpYhG1Pn6NcSGXg-1" value="Future(Java)" style="ellipse;whiteSpace=wrap;html=1;fontSize=16;" vertex="1" parent="1">
          <mxGeometry x="360" y="200" width="120" height="80" as="geometry" />
        </mxCell>
        <mxCell id="eVCT4GpYhG1Pn6NcSGXg-3" style="edgeStyle=orthogonalEdgeStyle;rounded=0;orthogonalLoop=1;jettySize=auto;html=1;exitX=0.5;exitY=0;exitDx=0;exitDy=0;" edge="1" parent="1" source="eVCT4GpYhG1Pn6NcSGXg-2" target="eVCT4GpYhG1Pn6NcSGXg-1">
          <mxGeometry relative="1" as="geometry" />
        </mxCell>
        <mxCell id="eVCT4GpYhG1Pn6NcSGXg-2" value="Future" style="ellipse;whiteSpace=wrap;html=1;fontSize=16;" vertex="1" parent="1">
          <mxGeometry x="360" y="330" width="120" height="80" as="geometry" />
        </mxCell>
        <mxCell id="eVCT4GpYhG1Pn6NcSGXg-5" style="edgeStyle=orthogonalEdgeStyle;rounded=0;orthogonalLoop=1;jettySize=auto;html=1;" edge="1" parent="1" source="eVCT4GpYhG1Pn6NcSGXg-4" target="eVCT4GpYhG1Pn6NcSGXg-2">
          <mxGeometry relative="1" as="geometry" />
        </mxCell>
        <mxCell id="eVCT4GpYhG1Pn6NcSGXg-4" value="AbstractFuture" style="rounded=1;whiteSpace=wrap;html=1;fontSize=16;" vertex="1" parent="1">
          <mxGeometry x="360" y="470" width="120" height="60" as="geometry" />
        </mxCell>
        <mxCell id="eVCT4GpYhG1Pn6NcSGXg-10" style="edgeStyle=orthogonalEdgeStyle;rounded=0;orthogonalLoop=1;jettySize=auto;html=1;exitX=0;exitY=0.5;exitDx=0;exitDy=0;" edge="1" parent="1" source="eVCT4GpYhG1Pn6NcSGXg-6" target="eVCT4GpYhG1Pn6NcSGXg-2">
          <mxGeometry relative="1" as="geometry" />
        </mxCell>
        <mxCell id="eVCT4GpYhG1Pn6NcSGXg-6" value="Promise" style="ellipse;whiteSpace=wrap;html=1;fontSize=16;" vertex="1" parent="1">
          <mxGeometry x="580" y="330" width="120" height="80" as="geometry" />
        </mxCell>
        <mxCell id="eVCT4GpYhG1Pn6NcSGXg-9" style="rounded=0;orthogonalLoop=1;jettySize=auto;html=1;entryX=1;entryY=0.5;entryDx=0;entryDy=0;" edge="1" parent="1" source="eVCT4GpYhG1Pn6NcSGXg-8" target="eVCT4GpYhG1Pn6NcSGXg-4">
          <mxGeometry relative="1" as="geometry" />
        </mxCell>
        <mxCell id="eVCT4GpYhG1Pn6NcSGXg-12" style="edgeStyle=orthogonalEdgeStyle;rounded=0;orthogonalLoop=1;jettySize=auto;html=1;exitX=0.5;exitY=0;exitDx=0;exitDy=0;" edge="1" parent="1" source="eVCT4GpYhG1Pn6NcSGXg-8" target="eVCT4GpYhG1Pn6NcSGXg-6">
          <mxGeometry relative="1" as="geometry" />
        </mxCell>
        <mxCell id="eVCT4GpYhG1Pn6NcSGXg-8" value="DefaultPromise" style="rounded=1;whiteSpace=wrap;html=1;fontSize=16;" vertex="1" parent="1">
          <mxGeometry x="580" y="470" width="120" height="60" as="geometry" />
        </mxCell>
        <mxCell id="eVCT4GpYhG1Pn6NcSGXg-15" style="edgeStyle=orthogonalEdgeStyle;rounded=0;orthogonalLoop=1;jettySize=auto;html=1;exitX=0.5;exitY=0;exitDx=0;exitDy=0;" edge="1" parent="1" source="eVCT4GpYhG1Pn6NcSGXg-13" target="eVCT4GpYhG1Pn6NcSGXg-14">
          <mxGeometry relative="1" as="geometry" />
        </mxCell>
        <mxCell id="eVCT4GpYhG1Pn6NcSGXg-13" value="GenericFutureListener" style="ellipse;whiteSpace=wrap;html=1;fontSize=16;" vertex="1" parent="1">
          <mxGeometry x="809" y="338" width="210" height="80" as="geometry" />
        </mxCell>
        <mxCell id="eVCT4GpYhG1Pn6NcSGXg-14" value="EventListener(Java)" style="ellipse;whiteSpace=wrap;html=1;fontSize=16;" vertex="1" parent="1">
          <mxGeometry x="819.5" y="200" width="189" height="80" as="geometry" />
        </mxCell>
        <mxCell id="eVCT4GpYhG1Pn6NcSGXg-17" style="edgeStyle=orthogonalEdgeStyle;rounded=0;orthogonalLoop=1;jettySize=auto;html=1;exitX=0.5;exitY=0;exitDx=0;exitDy=0;dashed=1;" edge="1" parent="1" source="eVCT4GpYhG1Pn6NcSGXg-16" target="eVCT4GpYhG1Pn6NcSGXg-13">
          <mxGeometry relative="1" as="geometry" />
        </mxCell>
        <mxCell id="eVCT4GpYhG1Pn6NcSGXg-18" value="组合" style="edgeLabel;html=1;align=center;verticalAlign=middle;resizable=0;points=[];fontSize=16;" vertex="1" connectable="0" parent="eVCT4GpYhG1Pn6NcSGXg-17">
          <mxGeometry x="0.0449" relative="1" as="geometry">
            <mxPoint y="4" as="offset" />
          </mxGeometry>
        </mxCell>
        <mxCell id="eVCT4GpYhG1Pn6NcSGXg-19" style="edgeStyle=orthogonalEdgeStyle;rounded=0;orthogonalLoop=1;jettySize=auto;html=1;exitX=0;exitY=0.5;exitDx=0;exitDy=0;entryX=1;entryY=0.5;entryDx=0;entryDy=0;dashed=1;dashPattern=8 8;" edge="1" parent="1" source="eVCT4GpYhG1Pn6NcSGXg-16" target="eVCT4GpYhG1Pn6NcSGXg-8">
          <mxGeometry relative="1" as="geometry" />
        </mxCell>
        <mxCell id="eVCT4GpYhG1Pn6NcSGXg-21" value="组合" style="edgeLabel;html=1;align=center;verticalAlign=middle;resizable=0;points=[];fontSize=16;" vertex="1" connectable="0" parent="eVCT4GpYhG1Pn6NcSGXg-19">
          <mxGeometry x="-0.1036" relative="1" as="geometry">
            <mxPoint as="offset" />
          </mxGeometry>
        </mxCell>
        <mxCell id="eVCT4GpYhG1Pn6NcSGXg-16" value="FutureListenerHolder" style="rounded=1;whiteSpace=wrap;html=1;fontSize=16;" vertex="1" parent="1">
          <mxGeometry x="809" y="470" width="210" height="60" as="geometry" />
        </mxCell>
      </root>
    </mxGraphModel>
  </diagram>
</mxfile>
